HIERARCHY
ROOT joint_Root
{
	OFFSET 0.0 0.0 0.0
	CHANNELS 6 Xposition Yposition Zposition Zrotation Xrotation Yrotation 
	JOINT Hips
	{
		OFFSET 4.5925 91.4895 -427.239
		CHANNELS 6 Xposition Yposition Zposition Zrotation Xrotation Yrotation 
		JOINT Spine
		{
			OFFSET 15.7357 0.0 0.0
			CHANNELS 6 Xposition Yposition Zposition Zrotation Xrotation Yrotation 
			JOINT Chest
			{
				OFFSET 8.98455 -0.406207 0.0
				CHANNELS 6 Xposition Yposition Zposition Zrotation Xrotation Yrotation 
				JOINT Neck
				{
					OFFSET 16.3773 0.0 0.0
					CHANNELS 6 Xposition Yposition Zposition Zrotation Xrotation Yrotation 
					JOINT Head
					{
						OFFSET 6.45672 0.0 0.0
						CHANNELS 6 Xposition Yposition Zposition Zrotation Xrotation Yrotation 
						End Site
						{
							OFFSET 0.0 0.0 0.0
						}
					}
				}
				JOINT Shoulder_L
				{
					OFFSET 12.9942 -0.242716 4.98039
					CHANNELS 6 Xposition Yposition Zposition Zrotation Xrotation Yrotation 
					JOINT UpperArm_L
					{
						OFFSET 5.34809 0.0 0.0
						CHANNELS 6 Xposition Yposition Zposition Zrotation Xrotation Yrotation 
						JOINT LowerArm_L
						{
							OFFSET 24.3286 1.87007e-05 0.0
							CHANNELS 6 Xposition Yposition Zposition Zrotation Xrotation Yrotation 
							JOINT Hand_L
							{
								OFFSET 22.2916 0.0 0.0
								CHANNELS 6 Xposition Yposition Zposition Zrotation Xrotation Yrotation 
								End Site
								{
									OFFSET 0.0 0.0 0.0
								}
							}
						}
					}
				}
				JOINT Shoulder_R
				{
					OFFSET 12.9945 -0.242716 -4.98039
					CHANNELS 6 Xposition Yposition Zposition Zrotation Xrotation Yrotation 
					JOINT UpperArm_R
					{
						OFFSET -5.34813 0.0 0.0
						CHANNELS 6 Xposition Yposition Zposition Zrotation Xrotation Yrotation 
						JOINT LowerArm_R
						{
							OFFSET -24.3289 0.000322201 0.0
							CHANNELS 6 Xposition Yposition Zposition Zrotation Xrotation Yrotation 
							JOINT Hand_R
							{
								OFFSET -22.2915 -0.000108084 0.0
								CHANNELS 6 Xposition Yposition Zposition Zrotation Xrotation Yrotation 
								End Site
								{
									OFFSET 0.0 0.0 0.0
								}
							}
						}
					}
				}
			}
		}
		JOINT UpperLeg_L
		{
			OFFSET -2.19248 -6.46944 0.0
			CHANNELS 6 Xposition Yposition Zposition Zrotation Xrotation Yrotation 
			JOINT LowerLeg_L
			{
				OFFSET 39.0811 0.0 -1.23785e-05
				CHANNELS 6 Xposition Yposition Zposition Zrotation Xrotation Yrotation 
				JOINT Foot_L
				{
					OFFSET 40.9854 0.0 -1.26872e-05
					CHANNELS 6 Xposition Yposition Zposition Zrotation Xrotation Yrotation 
					JOINT Toes_L
					{
						OFFSET 11.7543 0.0 0.0
						CHANNELS 6 Xposition Yposition Zposition Zrotation Xrotation Yrotation 
						End Site
						{
							OFFSET 0.0 0.0 0.0
						}
					}
				}
			}
		}
		JOINT UpperLeg_R
		{
			OFFSET -2.19251 6.46944 0.0
			CHANNELS 6 Xposition Yposition Zposition Zrotation Xrotation Yrotation 
			JOINT LowerLeg_R
			{
				OFFSET -39.0811 -0.00228153 -0.0401928
				CHANNELS 6 Xposition Yposition Zposition Zrotation Xrotation Yrotation 
				JOINT Foot_R
				{
					OFFSET -40.9854 0.0 0.0
					CHANNELS 6 Xposition Yposition Zposition Zrotation Xrotation Yrotation 
					JOINT Toes_R
					{
						OFFSET -11.7543 0.0 0.0
						CHANNELS 6 Xposition Yposition Zposition Zrotation Xrotation Yrotation 
						End Site
						{
							OFFSET 0.0 0.0 0.0
						}
					}
				}
			}
		}
	}
}
MOTION
Frames:	6
Frame Time:	0.0333333
0.000000 0.000000 0.000000 0.000000 0.000000 -0.000000 -1.726240 90.669100 -2.715260 88.795400 -1.143640 12.582700 15.735700 0.000005 -0.000001 89.445100 76.443400 -89.363000 8.984550 -0.406207 -0.000000 19.346100 -0.248774 0.207175 16.377300 -0.000001 -0.000001 6.451230 -3.900900 1.516190 6.456720 -0.000001 -0.000000 -8.403430 -3.701580 1.847770 12.994200 -0.242716 4.980390 -91.207500 6.987700 -80.171000 5.348090 -0.000007 -0.000001 -60.296000 31.864100 -26.852800 24.328600 0.000019 0.000005 11.586400 23.338400 -27.363000 22.291600 -0.000001 0.000005 10.172200 5.242480 1.630660 12.994500 -0.242716 -4.980390 89.026000 10.893700 -84.859800 -5.348130 -0.000001 -0.000004 -55.132400 35.248600 -24.629100 -24.328900 0.000322 -0.000009 2.855840 6.713140 -23.117500 -22.291500 -0.000108 -0.000004 18.928800 5.422990 -3.700150 -2.192480 -6.469440 -0.000000 -172.221000 -13.151500 -0.709335 39.081100 -0.000007 -0.000012 -0.188869 0.295015 32.627800 40.985400 -0.000006 -0.000013 -0.812589 5.267340 -68.694000 11.754300 -0.000000 0.000003 -0.000186 -0.001742 -16.643400 -2.192510 6.469440 -0.000001 173.548000 24.233800 -178.107000 -39.081100 -0.002282 -0.040193 -0.215994 0.360425 31.317800 -40.985400 0.000008 0.000006 4.278790 14.556000 -69.856100 -11.754300 -0.000006 -0.000006 -0.002412 -0.033765 -17.946100
0.000000 0.000000 0.000000 0.000000 0.000000 -0.000000 -1.730880 90.663700 -2.746530 88.801000 -1.090000 12.601100 15.735700 0.000005 -0.000001 89.482700 76.452600 -89.399100 8.984550 -0.406207 -0.000000 19.328000 -0.231106 0.206896 16.377300 -0.000001 -0.000001 6.492300 -3.934790 1.565540 6.456720 -0.000001 -0.000000 -8.428460 -3.735640 1.811110 12.994200 -0.242716 4.980390 -91.186300 6.887240 -80.202600 5.348090 -0.000007 -0.000001 -60.169500 31.945800 -26.785000 24.328600 0.000019 0.000005 11.689900 22.407000 -28.493200 22.291600 -0.000001 0.000005 10.104500 5.247950 1.486920 12.994500 -0.242716 -4.980390 89.028900 10.838300 -84.848900 -5.348130 -0.000001 -0.000004 -55.108500 35.263900 -24.655900 -24.328900 0.000322 -0.000009 2.812710 6.613700 -23.109600 -22.291500 -0.000108 -0.000004 18.904100 5.424820 -3.761980 -2.192480 -6.469440 -0.000000 -172.235000 -13.116500 -0.741932 39.081100 -0.000007 -0.000012 -0.188923 0.294727 32.660700 40.985400 -0.000006 -0.000013 -0.807871 5.273100 -68.681800 11.754300 -0.000000 0.000003 -0.000175 -0.001654 -16.640200 -2.192510 6.469440 -0.000001 173.546000 24.242600 -178.130000 -39.081100 -0.002282 -0.040193 -0.217085 0.361637 31.358700 -40.985400 0.000008 0.000006 4.282840 14.527100 -69.856300 -11.754300 -0.000006 -0.000006 -0.002464 -0.034386 -17.971400
0.000000 0.000000 0.000000 0.000000 0.000000 -0.000000 -1.739430 90.665200 -2.787590 88.786800 -1.042250 12.630400 15.735700 0.000005 -0.000001 89.499600 76.470300 -89.410500 8.984550 -0.406207 -0.000000 19.292600 -0.222467 0.216483 16.377300 -0.000001 -0.000001 6.611840 -3.919650 1.571560 6.456720 -0.000001 -0.000000 -8.500730 -3.793110 1.872870 12.994200 -0.242716 4.980390 -91.184600 6.819550 -80.121600 5.348090 -0.000007 -0.000001 -59.824500 32.094800 -26.929300 24.328600 0.000019 0.000005 11.938900 21.665700 -29.800500 22.291600 -0.000001 0.000005 10.088900 5.253780 1.332260 12.994500 -0.242716 -4.980390 89.036400 10.816600 -84.878500 -5.348130 -0.000001 -0.000004 -55.158000 35.208600 -24.571300 -24.328900 0.000322 -0.000009 2.824990 6.627290 -23.157600 -22.291500 -0.000108 -0.000004 18.946700 5.423950 -3.732690 -2.192480 -6.469440 -0.000000 -172.219000 -13.092600 -0.757700 39.081100 -0.000007 -0.000012 -0.188310 0.293668 32.669700 40.985400 -0.000006 -0.000013 -0.799060 5.309050 -68.650100 11.754300 -0.000000 0.000003 -0.000175 -0.001658 -16.640300 -2.192510 6.469440 -0.000001 173.564000 24.270600 -178.118000 -39.081100 -0.002282 -0.040193 -0.213621 0.356046 31.352000 -40.985400 0.000008 0.000006 4.281340 14.478700 -69.830900 -11.754300 -0.000006 -0.000006 -0.002547 -0.035364 -18.011200
0.000000 0.000000 0.000000 0.000000 0.000000 -0.000000 -1.735340 90.660700 -2.820540 88.792100 -0.977034 12.656300 15.735700 0.000005 -0.000001 89.556800 76.486400 -89.464000 8.984550 -0.406207 -0.000000 19.260600 -0.195467 0.219120 16.377300 -0.000001 -0.000001 6.684940 -3.929170 1.611660 6.456720 -0.000001 -0.000000 -8.481100 -3.826550 1.847840 12.994200 -0.242716 4.980390 -91.171400 6.731930 -80.105600 5.348090 -0.000007 -0.000001 -59.523800 31.938600 -27.170400 24.328600 0.000019 0.000005 12.360800 21.148400 -31.275300 22.291600 -0.000001 0.000005 10.071400 5.259720 1.174980 12.994500 -0.242716 -4.980390 89.044200 10.747500 -84.887800 -5.348130 -0.000001 -0.000004 -55.238700 35.160700 -24.540300 -24.328900 0.000322 -0.000009 2.839930 6.674380 -23.121000 -22.291500 -0.000108 -0.000004 18.929700 5.423630 -3.721660 -2.192480 -6.469440 -0.000000 -172.230000 -13.061900 -0.791245 39.081100 -0.000007 -0.000012 -0.189828 0.295691 32.700000 40.985400 -0.000006 -0.000013 -0.789707 5.328570 -68.627200 11.754300 -0.000000 0.000003 -0.000176 -0.001661 -16.640400 -2.192510 6.469440 -0.000001 173.530000 24.355100 -178.121000 -39.081100 -0.002282 -0.040193 -0.216796 0.360750 31.387800 -40.985400 0.000008 0.000006 4.299200 14.508400 -69.829700 -11.754300 -0.000006 -0.000006 -0.002605 -0.036049 -18.039100
0.000000 0.000000 0.000000 0.000000 0.000000 -0.000000 -1.739200 90.665800 -2.855880 88.799100 -0.904570 12.724100 15.735700 0.000005 -0.000001 89.631000 76.494100 -89.539200 8.984550 -0.406207 -0.000000 19.245400 -0.161216 0.211289 16.377300 -0.000001 -0.000001 6.789330 -3.922050 1.595940 6.456720 -0.000001 -0.000000 -8.506720 -3.869050 1.919750 12.994200 -0.242716 4.980390 -91.157400 6.623810 -80.066100 5.348090 -0.000007 -0.000001 -59.259600 31.592400 -27.443900 24.328600 0.000019 0.000005 12.804100 20.490700 -32.993500 22.291600 -0.000001 0.000005 10.239000 5.257430 1.235560 12.994500 -0.242716 -4.980390 89.051500 10.694600 -84.901700 -5.348130 -0.000001 -0.000004 -55.295000 35.170800 -24.486200 -24.328900 0.000322 -0.000009 2.834730 6.659000 -23.130600 -22.291500 -0.000108 -0.000004 18.940900 5.423830 -3.728490 -2.192480 -6.469440 -0.000000 -172.236000 -13.043400 -0.741731 39.081100 -0.000007 -0.000012 -0.187295 0.291996 32.677600 40.985400 -0.000006 -0.000013 -0.764180 5.387510 -68.593300 11.754300 -0.000000 0.000003 -0.000174 -0.001649 -16.640000 -2.192510 6.469440 -0.000001 173.488000 24.389700 -178.048000 -39.081100 -0.002282 -0.040193 -0.214699 0.357586 31.368300 -40.985400 0.000008 0.000006 4.292060 14.491100 -69.805000 -11.754300 -0.000006 -0.000006 -0.002602 -0.036018 -18.037800
0.000000 0.000000 0.000000 0.000000 0.000000 -0.000000 -1.742710 90.660700 -2.903950 88.812100 -0.822889 12.732100 15.735700 0.000005 -0.000001 89.634000 76.515900 -89.542500 8.984550 -0.406207 -0.000000 19.201800 -0.159598 0.210478 16.377300 -0.000001 -0.000001 6.860330 -3.918120 1.604980 6.456720 -0.000001 -0.000000 -8.556150 -3.885520 1.896050 12.994200 -0.242716 4.980390 -91.149700 6.548240 -80.019800 5.348090 -0.000007 -0.000001 -58.856200 31.108900 -27.887300 24.328600 0.000019 0.000005 13.219400 19.793700 -34.748600 22.291600 -0.000001 0.000005 10.430200 5.260570 1.151770 12.994500 -0.242716 -4.980390 89.064000 10.628500 -84.937700 -5.348130 -0.000001 -0.000004 -55.383100 35.099400 -24.453200 -24.328900 0.000322 -0.000009 2.789240 6.541560 -23.162000 -22.291500 -0.000108 -0.000004 18.786700 5.424230 -3.741970 -2.192480 -6.469440 -0.000000 -172.266000 -12.983200 -0.803895 39.081100 -0.000007 -0.000012 -0.186829 0.290927 32.708400 40.985400 -0.000006 -0.000013 -0.757211 5.408050 -68.564200 11.754300 -0.000000 0.000003 -0.000180 -0.001698 -16.641800 -2.192510 6.469440 -0.000001 173.464000 24.464300 -178.092000 -39.081100 -0.002282 -0.040193 -0.217320 0.361190 31.417400 -40.985400 0.000008 0.000006 4.304370 14.490200 -69.798300 -11.754300 -0.000006 -0.000006 -0.002421 -0.033862 -17.950100
